# xmcd CD database file
#
# Track frame offsets:
#	150
#	24209
#	52262
#	70164
#	107225
#	151755
#	193130
#	200441
#	229894
#	254441
#	284066
#	313004
#
# Disc length: 4570 seconds
#
# Revision: 0
# Processed by: cddbd v1.5.2PL0 Copyright (c) Steve Scherf et al.
# Submitted via: CDex 1.51
#
DISCID=b111d80c
DTITLE=Bohuslän Big Band - Don't Fence Me In
DYEAR=2011
DGENRE=Jazz
TTITLE0=From This Moment On
TTITLE1=Too Darn Hot
TTITLE2=What Is This Thing Called Love
TTITLE3=I Love Paris
TTITLE4=Begin The Beguine
TTITLE5=Love For Sale
TTITLE6=Prelude To Miss Otis Regrets
TTITLE7=Miss Otis Regrets
TTITLE8=Don't Fence Me In
TTITLE9=I've Got You Under My Skin
TTITLE10=I Get A Kick Out Of You
TTITLE11=Every Time We Say Goodbye
EXTD=YEAR: 2011
EXTT0=
EXTT1=
EXTT2=
EXTT3=
EXTT4=
EXTT5=
EXTT6=
EXTT7=
EXTT8=
EXTT9=
EXTT10=
EXTT11=
PLAYORDER=
